HIERARCHY
ROOT Hips
{
	OFFSET 49.861900 -1.836769 54.065701
	CHANNELS 6 Xposition Yposition Zposition Xrotation Yrotation Zrotation
	JOINT spine
	{
		OFFSET 0.000000 -0.448574 7.800591
		CHANNELS 3 Xrotation Yrotation Zrotation
		JOINT spine1
		{
			OFFSET 0.000000 -0.000002 10.136402
			CHANNELS 3 Xrotation Yrotation Zrotation
			JOINT spine2
			{
				OFFSET 0.000000 -0.000002 9.712509
				CHANNELS 3 Xrotation Yrotation Zrotation
				JOINT Neck
				{
					OFFSET 0.000000 -1.188874 24.936104
					CHANNELS 3 Xrotation Yrotation Zrotation
					JOINT Head
					{
						OFFSET 0.000000 -0.000001 7.533844
						CHANNELS 3 Xrotation Yrotation Zrotation
						End Site
						{
							OFFSET 0.000000 6.014017 18.236099
						}
					}
				}
				JOINT RightShoulder
				{
					OFFSET -4.089649 0.569455 10.488800
					CHANNELS 3 Xrotation Yrotation Zrotation
					JOINT RightArm
					{
						OFFSET 0.000000 -0.000002 13.756996
						CHANNELS 3 Xrotation Yrotation Zrotation
						JOINT RightArmRoll
						{
							OFFSET 0.000000 -0.000001 6.944778
							CHANNELS 3 Xrotation Yrotation Zrotation
							JOINT RightForeArm
							{
								OFFSET 0.000000 -0.000003 20.227707
								CHANNELS 3 Xrotation Yrotation Zrotation
								JOINT RightForeArmRoll
								{
									OFFSET 0.000000 -0.000001 7.793121
									CHANNELS 3 Xrotation Yrotation Zrotation
									JOINT RightHand
									{
										OFFSET 0.000000 -0.000003 15.639099
										CHANNELS 3 Xrotation Yrotation Zrotation
										End Site
										{
											OFFSET 0.000000 0.000000 0.100006
										}
									}
								}
							}
						}
					}
				}
				JOINT LeftShoulder
				{
					OFFSET 4.089649 0.569455 10.488800
					CHANNELS 3 Xrotation Yrotation Zrotation
					JOINT LeftArm
					{
						OFFSET 0.000000 -0.000002 13.756996
						CHANNELS 3 Xrotation Yrotation Zrotation
						JOINT LeftArmRoll
						{
							OFFSET 0.000000 -0.000001 6.944778
							CHANNELS 3 Xrotation Yrotation Zrotation
							JOINT LeftForeArm
							{
								OFFSET 0.000000 -0.000003 20.227707
								CHANNELS 3 Xrotation Yrotation Zrotation
								JOINT LeftForeArmRoll
								{
									OFFSET 0.000000 -0.000001 7.793121
									CHANNELS 3 Xrotation Yrotation Zrotation
									JOINT LeftHand
									{
										OFFSET 0.000000 -0.000003 15.639099
										CHANNELS 3 Xrotation Yrotation Zrotation
										End Site
										{
											OFFSET 0.000000 0.000000 0.100006
										}
									}
								}
							}
						}
					}
				}
			}
		}
	}
	JOINT RightUpLeg
	{
		OFFSET -6.914162 1.063580 -1.267879
		CHANNELS 3 Xrotation Yrotation Zrotation
		JOINT RightUpLegRoll
		{
			OFFSET 0.000000 -0.000003 18.337799
			CHANNELS 3 Xrotation Yrotation Zrotation
			JOINT RightLeg
			{
				OFFSET 0.000000 0.000004 -22.708500
				CHANNELS 3 Xrotation Yrotation Zrotation
				JOINT RightLegRoll
				{
					OFFSET 0.000000 -0.000004 22.782803
					CHANNELS 3 Xrotation Yrotation Zrotation
					JOINT RightFoot
					{
						OFFSET 0.000000 -0.000003 18.962898
						CHANNELS 3 Xrotation Yrotation Zrotation
						JOINT RightToeBase
						{
							OFFSET 0.000000 -0.000003 15.851997
							CHANNELS 3 Xrotation Yrotation Zrotation
							End Site
							{
								OFFSET 0.006718 0.884892 7.677002
							}
						}
					}
				}
			}
		}
	}
	JOINT LeftUpLeg
	{
		OFFSET 6.914162 1.063580 -1.267879
		CHANNELS 3 Xrotation Yrotation Zrotation
		JOINT LeftUpLegRoll
		{
			OFFSET 0.000000 -0.000003 18.337898
			CHANNELS 3 Xrotation Yrotation Zrotation
			JOINT LeftLeg
			{
				OFFSET 0.000000 -0.000004 22.708397
				CHANNELS 3 Xrotation Yrotation Zrotation
				JOINT LeftLegRoll
				{
					OFFSET 0.000000 -0.000004 22.993401
					CHANNELS 3 Xrotation Yrotation Zrotation
					JOINT LeftFoot
					{
						OFFSET 0.000000 -0.000003 18.752205
						CHANNELS 3 Xrotation Yrotation Zrotation
						JOINT LeftToeBase
						{
							OFFSET 0.000000 -0.000003 15.852005
							CHANNELS 3 Xrotation Yrotation Zrotation
							End Site
							{
								OFFSET -0.030113 0.884891 7.677017
							}
						}
					}
				}
			}
		}
	}
}
MOTION
Frames: 4
Frame Time: 0.041667
49.531895 -2.142342 52.810600 -6.538153 0.100605 22.181835 5.564414 -1.018807 -0.561695 15.124913 -2.091075 -1.011474 16.770331 -2.103052 -0.986350 7.672349 15.261161 -4.615467 2.892882 -12.428636 -4.462709 -12.273611 -53.869480 -14.264545 142.608093 -49.328518 107.259556 -0.000016 0.000028 -0.000012 74.636271 -4.630676 0.727768 0.000004 0.000007 -3.000000 -4.999921 -8.000353 0.000003 -13.505815 54.700953 15.797640 -36.749689 128.632830 63.655280 -0.000000 -0.000000 0.000000 69.973355 5.445430 1.667285 0.000003 -0.000009 3.000010 -5.000000 8.000020 -0.000038 -83.686667 182.156637 3.690147 -179.999991 0.000006 -1.347004 81.012095 3.933821 1.521101 -0.000004 -0.000001 1.758069 73.252078 5.814861 4.933384 25.456957 -7.355615 0.000001 -84.310571 184.919258 -8.480108 -0.000005 -0.000004 -2.121429 -93.829976 -3.433352 -1.785838 0.000004 -0.000002 -2.547371 69.536851 -9.887743 5.775691 25.465537 7.355616 -0.000007 
49.537697 -2.171600 52.803394 -6.641418 0.079595 22.201272 5.558706 -1.014856 -0.564064 15.113434 -2.083812 -1.016413 16.758947 -2.095842 -0.991373 7.683636 15.163735 -4.631756 2.852595 -12.382616 -4.478941 -12.300162 -53.978237 -14.301912 142.492813 -49.368778 107.206308 -0.000015 0.000028 -0.000014 74.554377 -4.666443 0.757841 0.000003 0.000009 -3.000000 -4.999921 -8.000351 0.000004 -13.474238 54.701698 15.759364 -36.744734 128.651435 63.610802 -0.000001 -0.000000 0.000000 69.886325 5.466338 1.646865 0.000002 -0.000008 3.000012 -5.000001 8.000024 -0.000037 -83.575916 182.159888 3.703126 -179.999991 0.000006 -1.348001 81.027142 3.936033 1.518257 -0.000005 -0.000000 1.757878 73.242741 5.812024 4.941648 25.456952 -7.355613 0.000001 -84.208350 184.945731 -8.458261 -0.000005 -0.000004 -2.123019 -93.811549 -3.443198 -1.794609 0.000004 -0.000003 -2.546499 69.514558 -9.886905 5.767253 25.465539 7.355619 -0.000007 
49.524296 -2.121988 52.818298 -6.744146 0.058773 22.220752 5.552968 -1.011015 -0.566322 15.101956 -2.076759 -1.021123 16.747361 -2.088854 -0.996167 7.695300 15.066892 -4.647923 2.812154 -12.337384 -4.494990 -12.326487 -54.086332 -14.338939 142.376195 -49.410548 107.150614 -0.000016 0.000028 -0.000012 74.473439 -4.701871 0.787746 0.000005 0.000008 -3.000001 -4.999918 -8.000353 0.000004 -13.441397 54.704092 15.719621 -36.741210 128.667336 63.568270 -0.000001 -0.000000 -0.000000 69.800797 5.486951 1.626858 0.000005 -0.000009 3.000011 -5.000009 8.000023 -0.000036 -83.465561 182.163181 3.717297 -179.999991 0.000003 -1.348998 81.042285 3.937902 1.515282 -0.000004 -0.000000 1.757810 73.233807 5.809423 4.949029 25.456957 -7.355613 0.000001 -84.106478 184.972342 -8.436583 -0.000005 -0.000004 -2.124641 -93.793305 -3.452907 -1.803375 0.000004 -0.000003 -2.545680 69.492728 -9.886099 5.758952 25.465534 7.355616 -0.000007 
49.518799 -2.125561 52.807800 -6.846411 0.038103 22.240076 5.547209 -1.007271 -0.568478 15.090381 -2.069882 -1.025625 16.735873 -2.082027 -1.000753 7.707442 14.970830 -4.663934 2.771564 -12.292743 -4.510787 -12.352448 -54.193866 -14.375474 142.258292 -49.453872 107.092769 -0.000015 0.000028 -0.000013 74.392952 -4.737083 0.817243 0.000002 0.000010 -3.000000 -4.999916 -8.000351 0.000004 -13.407520 54.708005 15.678670 -36.737730 128.682185 63.525438 -0.000000 0.000000 -0.000000 69.716417 5.507262 1.607271 0.000002 -0.000009 3.000010 -5.000006 8.000022 -0.000038 -83.355444 182.166773 3.730290 -179.999991 0.000005 -1.351006 81.057249 3.939614 1.511992 -0.000003 -0.000000 1.757829 73.225256 5.807015 4.956016 25.456955 -7.355616 0.000001 -84.004865 184.998843 -8.414773 -0.000005 -0.000004 -2.126289 -93.775321 -3.462648 -1.811156 0.000003 -0.000002 -2.544911 69.471445 -9.885236 5.750807 25.465537 7.355619 -0.000007 
